<svg width="20" height="20" viewBox="0 0 20 20" fill="none" xmlns="http://www.w3.org/2000/svg">
<path fill-rule="evenodd" clip-rule="evenodd" d="M10 5.86199C10.2594 5.53541 10.5796 5.18157 10.9496 4.86533C11.6288 4.28471 12.5718 3.75133 13.6665 3.89993C15.8169 4.19038 17.125 5.95175 17.125 8.14726C17.125 9.64656 16.0693 13.0742 10.2864 16.0555C10.1067 16.1481 9.8933 16.1481 9.71361 16.0555C3.93073 13.0742 2.875 9.64656 2.875 8.14726C2.875 5.95172 4.18318 4.19033 6.33355 3.89992M10 5.86199C9.74058 5.53541 9.42041 5.18157 9.05044 4.86533C8.37124 4.28475 7.42815 3.75142 6.33355 3.89992M8.23824 5.8155C7.67256 5.33196 7.08026 5.05996 6.50145 5.13859L6.50095 5.13866C5.06873 5.33204 4.125 6.473 4.125 8.14726C4.125 9.05033 4.78541 12.0134 10 14.7943C15.2146 12.0134 15.875 9.05033 15.875 8.14726C15.875 6.473 14.9313 5.33204 13.499 5.13866L13.4985 5.13859C12.9197 5.05996 12.3274 5.33196 11.7618 5.8155C11.2052 6.29121 10.7667 6.89557 10.528 7.27243C10.4134 7.45331 10.2141 7.56293 10 7.56293C9.78587 7.56293 9.58664 7.45331 9.47204 7.27243C9.23328 6.89557 8.79476 6.29121 8.23824 5.8155Z" fill="#FAFAFA"/>
</svg>
