<svg width="40" height="40" viewBox="0 0 40 40" fill="none" xmlns="http://www.w3.org/2000/svg">
<path fill-rule="evenodd" clip-rule="evenodd" d="M10.302 26.9311C8.85438 28.9138 8 31.3571 8 34C8 34.8284 7.32843 35.5 6.5 35.5C5.67157 35.5 5 34.8284 5 34C5 28.1698 8.32628 23.1164 13.1846 20.6341C13.368 20.5405 13.5535 20.4505 13.7411 20.3642C14.7131 19.9173 15.7412 19.5712 16.8119 19.3395C16.6269 19.259 16.4455 19.1718 16.2681 19.0781C16.2409 19.0637 16.2138 19.0491 16.1867 19.0344C15.2795 18.5416 14.4782 17.8784 13.8259 17.0877C12.6852 15.705 12 13.9325 12 12C12 7.58172 15.5817 4 20 4C24.4183 4 28 7.58172 28 12C28 13.9325 27.3148 15.705 26.1741 17.0877C25.5023 17.9019 24.6726 18.581 23.7319 19.0781C23.5545 19.1718 23.3731 19.259 23.1881 19.3395C23.6195 19.4329 24.0439 19.5448 24.4605 19.6744C25.0781 19.8664 25.6785 20.0973 26.2589 20.3642C26.4465 20.4505 26.632 20.5405 26.8154 20.6341C31.6737 23.1164 35 28.1698 35 34C35 34.8284 34.3284 35.5 33.5 35.5C32.6716 35.5 32 34.8284 32 34C32 27.3726 26.6274 22 20 22C16.0155 22 12.4845 23.942 10.302 26.9311ZM15.1083 13.0402C15.587 15.3024 17.5953 17 20 17C22.5053 17 24.5802 15.1575 24.9436 12.7536C24.9807 12.5077 25 12.2561 25 12C25 9.23858 22.7614 7 20 7C17.2386 7 15 9.23858 15 12C15 12.3565 15.0373 12.7045 15.1083 13.0402Z" fill="black"/>
</svg>
