<svg width="50" height="50" viewBox="0 0 50 50" fill="none" xmlns="http://www.w3.org/2000/svg">
<path d="M14.417 7.51367H36.5039C37.715 7.51367 38.7518 7.94512 39.6143 8.80762C40.4766 9.67001 40.9081 10.7061 40.9082 11.917V40.5752C40.9082 42.1532 40.2478 43.3729 38.9268 44.2354C37.6056 45.0978 36.2112 45.2175 34.7432 44.5938L25.4658 40.6172L25.4688 40.6123L25.4551 40.6172L16.1787 44.5938C14.7106 45.2176 13.3163 45.0978 11.9951 44.2354C10.674 43.3729 10.0137 42.1533 10.0137 40.5752V11.917C10.0138 10.7061 10.4452 9.67003 11.3076 8.80762C12.17 7.94521 13.2061 7.51376 14.417 7.51367Z" fill="#FAFAFA" stroke="#FAFAFA" stroke-width="0.0276086"/>
</svg>
