<svg width="40" height="40" viewBox="0 0 40 40" fill="none" xmlns="http://www.w3.org/2000/svg">
<path fill-rule="evenodd" clip-rule="evenodd" d="M20 11.9446C19.5394 11.346 18.9947 10.7194 18.3785 10.1488C17.0554 8.92338 15.1464 7.72527 12.8894 8.05561C8.53811 8.69248 6 12.5298 6 17.1313C6 20.3147 8.06767 27.5425 19.2918 33.815C19.7332 34.0617 20.2668 34.0617 20.7082 33.815C31.9323 27.5425 34 20.3147 34 17.1313C34 12.5298 31.4619 8.69249 27.1106 8.05561C24.8536 7.72527 22.9446 8.92338 21.6215 10.1488C21.0053 10.7194 20.4606 11.346 20 11.9446ZM15.0704 18.6464C14.2536 18.6464 13.5915 19.3248 13.5915 20.1616C13.5915 20.9984 14.2536 21.6768 15.0704 21.6768H24.9295C25.7463 21.6768 26.4084 20.9984 26.4084 20.1616C26.4084 19.3248 25.7463 18.6464 24.9295 18.6464H15.0704Z" fill="black"/>
</svg>
