<svg width="40" height="40" viewBox="0 0 40 40" fill="none" xmlns="http://www.w3.org/2000/svg">
<path d="M13.5385 7.43077L11.3385 5.23077C7.64615 8.04615 5.21538 12.3846 5 17.3077H8.07692C8.30769 13.2308 10.4 9.66154 13.5385 7.43077V7.43077ZM32.6 17.3077H35.6769C35.4462 12.3846 33.0154 8.04615 29.3385 5.23077L27.1538 7.43077C30.2615 9.66154 32.3692 13.2308 32.6 17.3077ZM29.5692 18.0769C29.5692 13.3538 27.0462 9.4 22.6462 8.35385V7.30769C22.6462 6.03077 21.6154 5 20.3385 5C19.0615 5 18.0308 6.03077 18.0308 7.30769V8.35385C13.6154 9.4 11.1077 13.3385 11.1077 18.0769V25.7692L8.03077 28.8462V30.3846H32.6462V28.8462L29.5692 25.7692V18.0769ZM20.3385 35C20.5538 35 20.7538 34.9846 20.9538 34.9385C21.9538 34.7231 22.7692 34.0462 23.1692 33.1231C23.3231 32.7538 23.4 32.3538 23.4 31.9231H17.2462C17.2615 33.6154 18.6308 35 20.3385 35Z" fill="#FAFAFA"/>
</svg>
