<svg width="50" height="50" viewBox="0 0 50 50" fill="none" xmlns="http://www.w3.org/2000/svg">
<path d="M5.74219 25.0244C9.34665 25.1786 12.778 26.6751 15.3633 29.2402C17.9476 31.8045 19.4884 35.2407 19.7002 38.875H17.4365C17.2351 35.8401 15.9382 32.9729 13.7744 30.8262C11.6143 28.6831 8.7539 27.4208 5.74219 27.2627V25.0244ZM5.7334 30.8535C7.79551 31.0101 9.74669 31.8954 11.2334 33.3701C12.7189 34.8438 13.6299 36.7964 13.8203 38.875H12.0859C11.9065 37.2553 11.1799 35.7374 10.0156 34.583C8.85483 33.4321 7.3411 32.7246 5.7334 32.5674V30.8535ZM5.7334 36.1865C6.38901 36.3218 6.99875 36.6458 7.48438 37.127C7.96878 37.6071 8.30052 38.2155 8.44727 38.875H5.7334V36.1865ZM10.4307 10.7334H42.0371C43.2526 10.7335 44.2381 11.7191 44.2383 12.9346V34.5605C44.2381 35.776 43.2526 36.7616 42.0371 36.7617H23.0889C22.9682 36.0425 22.7875 35.2158 22.5947 34.4834H41.9795V13.0166H10.5117V22.2578C9.79 22.0423 8.9603 21.8133 8.22949 21.6719V12.9346C8.22967 11.719 9.2151 10.7334 10.4307 10.7334Z" fill="#FAFAFA" stroke="#FAFAFA" stroke-width="1.46745"/>
</svg>
