<svg width="40" height="40" viewBox="0 0 40 40" fill="none" xmlns="http://www.w3.org/2000/svg">
<path fill-rule="evenodd" clip-rule="evenodd" d="M17.9657 29.996C17.8611 29.1336 17.5607 27.8269 17.2963 27H32.9963V11H8.99634V18.6C8.16209 18.339 6.86392 17.939 5.99634 17.8367V9.9566C5.99634 8.876 6.87234 8 7.95294 8H34.0209C35.1015 8 35.9775 8.876 35.9775 9.9566V28.0394C35.9775 29.12 35.1015 29.996 34.0209 29.996H17.9657ZM16.3668 31.687H13.3844C13.3637 29.1997 12.3643 26.8224 10.6057 25.0778C8.84722 23.3332 6.47356 22.364 4.00653 22.3833V19.4224C7.25823 19.3979 10.3866 20.6759 12.7042 22.9756C15.0219 25.2753 16.3392 28.4086 16.3668 31.687ZM11.6746 31.687H9.11639C9.10433 30.3305 8.5587 29.0343 7.59937 28.0831C6.64003 27.1319 5.34546 26.6035 4 26.614V24.0743C6.01875 24.0585 7.9611 24.8515 9.4002 26.279C10.8393 27.7065 11.6574 29.6517 11.6746 31.687ZM7.41311 31.687H4V28.305C4.89718 28.298 5.76045 28.6502 6.40035 29.2843C7.04025 29.9184 7.4045 30.7825 7.41311 31.687Z" fill="#FAFAFA"/>
<path fill-rule="evenodd" clip-rule="evenodd" d="M31.5237 12.4958H10.5237V19.2202C13.1683 20.607 15.3173 22.8106 16.6355 25.4958H31.5237V12.4958Z" fill="#FAFAFA"/>
</svg>
