<svg width="50" height="50" viewBox="0 0 50 50" fill="none" xmlns="http://www.w3.org/2000/svg">
<path d="M25 6.25C35.3553 6.25 43.75 14.6447 43.75 25C43.75 35.3553 35.3553 43.75 25 43.75C14.6447 43.75 6.25 35.3553 6.25 25C6.25 14.6447 14.6447 6.25 25 6.25ZM32.5762 17.4238C31.8439 16.6916 30.6561 16.6916 29.9238 17.4238L25 22.3486L20.0762 17.4238C19.3439 16.6916 18.1561 16.6916 17.4238 17.4238C16.6916 18.1561 16.6916 19.3439 17.4238 20.0762L22.3486 25L17.4238 29.9238C16.6916 30.6561 16.6916 31.8439 17.4238 32.5762C18.1561 33.3084 19.3439 33.3084 20.0762 32.5762L25 27.6514L29.9238 32.5762C30.6561 33.3084 31.8439 33.3084 32.5762 32.5762C33.3084 31.8439 33.3084 30.6561 32.5762 29.9238L27.6514 25L32.5762 20.0762C33.3084 19.3439 33.3084 18.1561 32.5762 17.4238Z" fill="#FAFAFA"/>
</svg>
