<svg width="40" height="40" viewBox="0 0 40 40" fill="none" xmlns="http://www.w3.org/2000/svg">
<path fill-rule="evenodd" clip-rule="evenodd" d="M18.0223 5.02798C19.3898 3.65734 21.6102 3.65734 22.9777 5.02798L34.9777 17.0556C35.6324 17.7118 36 18.6008 36 19.5276V31.6683C36 33.6013 34.433 35.1683 32.5 35.1683H22.8V26.2167H18.2V35.1683H8.5C6.567 35.1683 5 33.6013 5 31.6683V19.5276C5 18.6008 5.36764 17.7118 6.02228 17.0556L18.0223 5.02798ZM20.854 7.14685C20.6586 6.95105 20.3414 6.95105 20.146 7.14685L8.14604 19.1745C8.05252 19.2682 8 19.3952 8 19.5276V31.6683C8 31.9445 8.22386 32.1683 8.5 32.1683H15.2V23.2167H25.8V32.1683H32.5C32.7761 32.1683 33 31.9445 33 31.6683V19.5276C33 19.3952 32.9475 19.2682 32.854 19.1745L20.854 7.14685Z" fill="#FAFAFA"/>
</svg>
