<svg width="40" height="40" viewBox="0 0 40 40" fill="none" xmlns="http://www.w3.org/2000/svg">
<path fill-rule="evenodd" clip-rule="evenodd" d="M34 21.6331C34.5523 21.6331 35 21.1854 35 20.6331V18.3798C35 17.8275 34.5523 17.3798 34 17.3798H32.1522C31.6835 17.3798 31.2824 17.0527 31.1475 16.6038C30.8862 15.7345 30.5179 14.9011 30.051 14.1227C29.8003 13.7047 29.8413 13.1642 30.1857 12.8192L31.5475 11.455C31.9372 11.0646 31.9372 10.4323 31.5474 10.042L29.9563 8.44848C29.5653 8.0569 28.9306 8.05731 28.5401 8.44938L27.0822 9.91322C26.7502 10.2465 26.2331 10.2989 25.8192 10.0753C25.061 9.66553 24.2568 9.34697 23.4236 9.12625C22.9575 9.00278 22.6119 8.59409 22.6119 8.11191V6C22.6119 5.44771 22.1642 5 21.6119 5H19.3558C18.8035 5 18.3558 5.44772 18.3558 6V8.1702C18.3558 8.64358 18.0223 9.04735 17.5674 9.17845C16.7598 9.41122 15.9817 9.73648 15.2488 10.1477C14.8338 10.3806 14.309 10.3326 13.9723 9.99615L12.4341 8.45895C12.0433 8.06844 11.4099 8.06878 11.0196 8.45971L9.42765 10.054C9.03752 10.4447 9.03786 11.0776 9.4284 11.4679L10.939 12.9775C11.2796 13.3179 11.3248 13.8503 11.0836 14.2671C10.6561 15.0058 10.3163 15.7919 10.0713 16.6094C9.9367 17.0587 9.53541 17.3862 9.0664 17.3862H7C6.44772 17.3862 6 17.8339 6 18.3862V20.6396C6 21.1918 6.44772 21.6396 7 21.6396H8.94449C9.43059 21.6396 9.84144 21.9906 9.96132 22.4617C10.1839 23.3364 10.5139 24.1803 10.9436 24.9742C11.1674 25.3875 11.1155 25.9041 10.7831 26.2363L9.48001 27.5385C9.08947 27.9288 9.08913 28.5618 9.47925 28.9525L11.0703 30.5459C11.461 30.9371 12.0951 30.9371 12.4857 30.5457L13.7085 29.3206C14.0534 28.975 14.595 28.9335 15.0136 29.1847C15.8275 29.6731 16.7014 30.0539 17.6135 30.3174C18.068 30.4486 18.4009 30.8522 18.4009 31.3252V33C18.4009 33.5523 18.8486 34 19.4009 34H21.6571C22.2094 34 22.6571 33.5523 22.6571 33V31.3905C22.6571 30.9085 23.0025 30.4998 23.4686 30.3764C24.4088 30.1274 25.3117 29.7545 26.1534 29.2674C26.5699 29.0265 27.1018 29.0715 27.4422 29.4117L28.5852 30.554C28.976 30.9445 29.6094 30.9441 29.9997 30.5532L31.5917 28.9589C31.9818 28.5682 31.9815 27.9353 31.5909 27.545L30.4133 26.3681C30.0795 26.0346 30.0288 25.5154 30.2553 25.1016C30.7104 24.2702 31.0556 23.3834 31.2824 22.4635C31.3994 21.9885 31.8119 21.6331 32.3011 21.6331H34ZM19 13H22V16H19V13ZM22 18H19V26H22V18Z" fill="#FAFAFA"/>
</svg>
