<svg width="40" height="40" viewBox="0 0 40 40" fill="none" xmlns="http://www.w3.org/2000/svg">
<path d="M8.33333 35C7.41667 35 6.63194 34.6736 5.97917 34.0208C5.32639 33.3681 5 32.5833 5 31.6667V8.33333C5 7.41667 5.32639 6.63194 5.97917 5.97917C6.63194 5.32639 7.41667 5 8.33333 5H18.3333C18.8056 5 19.2014 5.15972 19.5208 5.47917C19.8403 5.79861 20 6.19444 20 6.66667C20 7.13889 19.8403 7.53472 19.5208 7.85417C19.2014 8.17361 18.8056 8.33333 18.3333 8.33333H8.33333V31.6667H31.6667V21.6667C31.6667 21.1944 31.8264 20.7986 32.1458 20.4792C32.4653 20.1597 32.8611 20 33.3333 20C33.8056 20 34.2014 20.1597 34.5208 20.4792C34.8403 20.7986 35 21.1944 35 21.6667V31.6667C35 32.5833 34.6736 33.3681 34.0208 34.0208C33.3681 34.6736 32.5833 35 31.6667 35H8.33333ZM31.6667 10.6667L17.3333 25C17.0278 25.3056 16.6389 25.4583 16.1667 25.4583C15.6944 25.4583 15.3056 25.3056 15 25C14.6944 24.6944 14.5417 24.3056 14.5417 23.8333C14.5417 23.3611 14.6944 22.9722 15 22.6667L29.3333 8.33333H25C24.5278 8.33333 24.1319 8.17361 23.8125 7.85417C23.4931 7.53472 23.3333 7.13889 23.3333 6.66667C23.3333 6.19444 23.4931 5.79861 23.8125 5.47917C24.1319 5.15972 24.5278 5 25 5H33.3333C33.8056 5 34.2014 5.15972 34.5208 5.47917C34.8403 5.79861 35 6.19444 35 6.66667V15C35 15.4722 34.8403 15.8681 34.5208 16.1875C34.2014 16.5069 33.8056 16.6667 33.3333 16.6667C32.8611 16.6667 32.4653 16.5069 32.1458 16.1875C31.8264 15.8681 31.6667 15.4722 31.6667 15V10.6667Z" fill="black"/>
</svg>
