<svg width="201" height="63" viewBox="0 0 201 63" fill="none" xmlns="http://www.w3.org/2000/svg">
<rect width="62.9921" height="62.9921" rx="31.4961" fill="#FAFAFA"/>
<path d="M87.254 17.9222H82.8003V14.5881H87.254C87.861 14.5881 88.3531 14.4856 88.7304 14.2805C89.1077 14.0755 89.3825 13.7925 89.5547 13.4316C89.7351 13.0625 89.8254 12.6483 89.8254 12.189C89.8254 11.6969 89.7351 11.2416 89.5547 10.8233C89.3825 10.405 89.1077 10.0687 88.7304 9.81447C88.3531 9.552 87.861 9.42077 87.254 9.42077H84.4243V24H80.1059V6.08661H87.254C88.6894 6.08661 89.9238 6.34908 90.9573 6.87402C91.9989 7.39895 92.7986 8.12074 93.3564 9.03937C93.9141 9.9498 94.193 10.9915 94.193 12.1644C94.193 13.3209 93.9141 14.3297 93.3564 15.1909C92.7986 16.0522 91.9989 16.7247 90.9573 17.2087C89.9238 17.6844 88.6894 17.9222 87.254 17.9222ZM96.5183 6.08661H103.568C104.946 6.08661 106.143 6.29167 107.161 6.70177C108.178 7.11188 108.961 7.71883 109.51 8.52264C110.068 9.32644 110.347 10.3189 110.347 11.5C110.347 12.5253 110.187 13.3824 109.867 14.0714C109.547 14.7603 109.1 15.3304 108.526 15.7815C107.96 16.2244 107.3 16.5894 106.545 16.8765L105.13 17.6762H99.2127L99.1881 14.342H103.568C104.118 14.342 104.573 14.2436 104.934 14.0468C105.295 13.8499 105.565 13.571 105.746 13.2101C105.934 12.841 106.029 12.4022 106.029 11.8937C106.029 11.377 105.934 10.9341 105.746 10.565C105.557 10.1959 105.278 9.91289 104.909 9.71604C104.548 9.51919 104.101 9.42077 103.568 9.42077H100.837V24H96.5183V6.08661ZM106.324 24L102.362 16.0768L106.939 16.0522L110.95 23.8155V24H106.324ZM128.113 14.6865V15.4124C128.113 16.7822 127.92 18.0125 127.535 19.1033C127.157 20.186 126.62 21.1129 125.923 21.8839C125.226 22.6467 124.401 23.2331 123.45 23.6432C122.498 24.0451 121.449 24.2461 120.3 24.2461C119.144 24.2461 118.086 24.0451 117.126 23.6432C116.175 23.2331 115.346 22.6467 114.641 21.8839C113.944 21.1129 113.402 20.186 113.017 19.1033C112.64 18.0125 112.451 16.7822 112.451 15.4124V14.6865C112.451 13.3168 112.64 12.0865 113.017 10.9956C113.402 9.90469 113.94 8.97785 114.629 8.21506C115.326 7.44406 116.15 6.85761 117.101 6.45571C118.061 6.0456 119.119 5.84055 120.276 5.84055C121.424 5.84055 122.474 6.0456 123.425 6.45571C124.385 6.85761 125.213 7.44406 125.911 8.21506C126.608 8.97785 127.149 9.90469 127.535 10.9956C127.92 12.0865 128.113 13.3168 128.113 14.6865ZM123.733 15.4124V14.6619C123.733 13.7761 123.655 12.9969 123.499 12.3243C123.351 11.6435 123.13 11.0735 122.835 10.6142C122.539 10.1549 122.174 9.81037 121.74 9.58071C121.313 9.34285 120.825 9.22392 120.276 9.22392C119.702 9.22392 119.201 9.34285 118.775 9.58071C118.348 9.81037 117.991 10.1549 117.704 10.6142C117.417 11.0735 117.2 11.6435 117.052 12.3243C116.913 12.9969 116.843 13.7761 116.843 14.6619V15.4124C116.843 16.29 116.913 17.0692 117.052 17.75C117.2 18.4226 117.417 18.9926 117.704 19.4601C118 19.9277 118.36 20.2803 118.787 20.5182C119.222 20.7561 119.726 20.875 120.3 20.875C120.85 20.875 121.338 20.7561 121.764 20.5182C122.191 20.2803 122.548 19.9277 122.835 19.4601C123.13 18.9926 123.351 18.4226 123.499 17.75C123.655 17.0692 123.733 16.29 123.733 15.4124ZM136.86 19.78L140.588 6.08661H145.423L139.382 24H136.257L136.86 19.78ZM133.477 6.08661L137.205 19.78L137.832 24H134.67L128.666 6.08661H133.477ZM151.329 6.08661V24H147.023V6.08661H151.329ZM160.187 24H156.213L156.238 20.6781H160.187C161.007 20.6781 161.7 20.4813 162.266 20.0876C162.84 19.6939 163.275 19.1074 163.57 18.3282C163.874 17.5408 164.026 16.573 164.026 15.4247V14.6496C164.026 13.7884 163.94 13.0338 163.767 12.3858C163.603 11.7297 163.357 11.1842 163.029 10.7495C162.701 10.3066 162.291 9.97441 161.799 9.75295C161.315 9.5315 160.757 9.42077 160.126 9.42077H156.139V6.08661H160.126C161.339 6.08661 162.451 6.29577 163.46 6.71408C164.477 7.12418 165.354 7.71473 166.093 8.48573C166.839 9.24852 167.413 10.1549 167.815 11.2047C168.225 12.2464 168.43 13.4029 168.43 14.6742V15.4247C168.43 16.6878 168.225 17.8443 167.815 18.8942C167.413 19.9441 166.843 20.8504 166.105 21.6132C165.367 22.376 164.493 22.9665 163.484 23.3848C162.484 23.7949 161.385 24 160.187 24ZM158.686 6.08661V24H154.368V6.08661H158.686ZM183.009 20.6781V24H173.462V20.6781H183.009ZM175 6.08661V24H170.682V6.08661H175ZM181.779 13.1978V16.409H173.462V13.1978H181.779ZM183.046 6.08661V9.42077H173.462V6.08661H183.046ZM184.781 6.08661H191.831C193.209 6.08661 194.406 6.29167 195.423 6.70177C196.44 7.11188 197.224 7.71883 197.773 8.52264C198.331 9.32644 198.61 10.3189 198.61 11.5C198.61 12.5253 198.45 13.3824 198.13 14.0714C197.81 14.7603 197.363 15.3304 196.789 15.7815C196.223 16.2244 195.563 16.5894 194.808 16.8765L193.393 17.6762H187.475L187.451 14.342H191.831C192.38 14.342 192.836 14.2436 193.196 14.0468C193.557 13.8499 193.828 13.571 194.008 13.2101C194.197 12.841 194.291 12.4022 194.291 11.8937C194.291 11.377 194.197 10.9341 194.008 10.565C193.82 10.1959 193.541 9.91289 193.172 9.71604C192.811 9.51919 192.364 9.42077 191.831 9.42077H189.099V24H184.781V6.08661ZM194.587 24L190.625 16.0768L195.202 16.0522L199.213 23.8155V24H194.587Z" fill="#FAFAFA"/>
<path d="M91.6831 52.0684V54H82.7265V52.0684H91.6831ZM83.194 36.0866V54H80.8195V36.0866H83.194ZM93.4548 47.4916V47.2087C93.4548 46.249 93.5942 45.3591 93.8731 44.5389C94.152 43.7105 94.5539 42.9928 95.0788 42.3858C95.6038 41.7707 96.2394 41.2949 96.9858 40.9587C97.7322 40.6142 98.5688 40.4419 99.4956 40.4419C100.431 40.4419 101.271 40.6142 102.018 40.9587C102.772 41.2949 103.412 41.7707 103.937 42.3858C104.47 42.9928 104.876 43.7105 105.155 44.5389C105.434 45.3591 105.573 46.249 105.573 47.2087V47.4916C105.573 48.4513 105.434 49.3412 105.155 50.1614C104.876 50.9816 104.47 51.6993 103.937 52.3145C103.412 52.9214 102.776 53.3971 102.03 53.7416C101.292 54.0779 100.455 54.2461 99.5203 54.2461C98.5852 54.2461 97.7445 54.0779 96.9981 53.7416C96.2517 53.3971 95.612 52.9214 95.0788 52.3145C94.5539 51.6993 94.152 50.9816 93.8731 50.1614C93.5942 49.3412 93.4548 48.4513 93.4548 47.4916ZM95.7309 47.2087V47.4916C95.7309 48.156 95.8088 48.7835 95.9646 49.374C96.1205 49.9564 96.3542 50.4731 96.6659 50.9242C96.9858 51.3753 97.3836 51.7321 97.8593 51.9946C98.3351 52.2489 98.8887 52.376 99.5203 52.376C100.144 52.376 100.689 52.2489 101.157 51.9946C101.632 51.7321 102.026 51.3753 102.338 50.9242C102.649 50.4731 102.883 49.9564 103.039 49.374C103.203 48.7835 103.285 48.156 103.285 47.4916V47.2087C103.285 46.5525 103.203 45.9332 103.039 45.3509C102.883 44.7603 102.645 44.2395 102.325 43.7884C102.014 43.3291 101.62 42.9682 101.144 42.7057C100.677 42.4432 100.127 42.312 99.4956 42.312C98.8723 42.312 98.3227 42.4432 97.847 42.7057C97.3795 42.9682 96.9858 43.3291 96.6659 43.7884C96.3542 44.2395 96.1205 44.7603 95.9646 45.3509C95.8088 45.9332 95.7309 46.5525 95.7309 47.2087ZM117.052 40.688H119.119V53.717C119.119 54.8899 118.881 55.8906 118.406 56.719C117.93 57.5474 117.265 58.1749 116.412 58.6014C115.568 59.0361 114.592 59.2534 113.484 59.2534C113.025 59.2534 112.484 59.1796 111.86 59.032C111.245 58.8926 110.638 58.6506 110.039 58.3061C109.449 57.9698 108.953 57.5146 108.551 56.9405L109.744 55.5871C110.302 56.2597 110.884 56.7272 111.491 56.9897C112.106 57.2521 112.713 57.3834 113.312 57.3834C114.034 57.3834 114.657 57.248 115.182 56.9774C115.707 56.7067 116.113 56.3048 116.4 55.7717C116.695 55.2467 116.843 54.5988 116.843 53.8278V43.6161L117.052 40.688ZM107.886 47.4916V47.2333C107.886 46.2162 108.005 45.2935 108.243 44.4651C108.489 43.6284 108.838 42.9108 109.289 42.312C109.748 41.7133 110.302 41.2539 110.95 40.9341C111.598 40.606 112.328 40.4419 113.14 40.4419C113.976 40.4419 114.706 40.5896 115.33 40.8848C115.961 41.1719 116.494 41.5943 116.929 42.1521C117.372 42.7016 117.721 43.366 117.975 44.1452C118.229 44.9244 118.406 45.8061 118.504 46.7904V47.9222C118.414 48.8983 118.237 49.7759 117.975 50.5551C117.721 51.3343 117.372 51.9987 116.929 52.5482C116.494 53.0978 115.961 53.5202 115.33 53.8155C114.698 54.1025 113.96 54.2461 113.115 54.2461C112.32 54.2461 111.598 54.0779 110.95 53.7416C110.31 53.4053 109.761 52.9337 109.301 52.3268C108.842 51.7198 108.489 51.0062 108.243 50.186C108.005 49.3576 107.886 48.4595 107.886 47.4916ZM110.162 47.2333V47.4916C110.162 48.156 110.228 48.7794 110.359 49.3617C110.499 49.9441 110.708 50.4567 110.987 50.8996C111.274 51.3425 111.639 51.6911 112.082 51.9454C112.525 52.1914 113.054 52.3145 113.669 52.3145C114.423 52.3145 115.047 52.1545 115.539 51.8346C116.031 51.5148 116.421 51.0924 116.708 50.5674C117.003 50.0425 117.233 49.4724 117.397 48.8573V45.8922C117.307 45.4411 117.167 45.0064 116.978 44.5881C116.798 44.1616 116.56 43.7843 116.265 43.4562C115.978 43.1199 115.621 42.8533 115.194 42.6565C114.768 42.4596 114.268 42.3612 113.693 42.3612C113.07 42.3612 112.533 42.4925 112.082 42.7549C111.639 43.0092 111.274 43.3619 110.987 43.813C110.708 44.2559 110.499 44.7726 110.359 45.3632C110.228 45.9455 110.162 46.5689 110.162 47.2333ZM121.973 47.4916V47.2087C121.973 46.249 122.113 45.3591 122.392 44.5389C122.671 43.7105 123.073 42.9928 123.598 42.3858C124.122 41.7707 124.758 41.2949 125.505 40.9587C126.251 40.6142 127.088 40.4419 128.014 40.4419C128.949 40.4419 129.79 40.6142 130.536 40.9587C131.291 41.2949 131.931 41.7707 132.456 42.3858C132.989 42.9928 133.395 43.7105 133.674 44.5389C133.953 45.3591 134.092 46.249 134.092 47.2087V47.4916C134.092 48.4513 133.953 49.3412 133.674 50.1614C133.395 50.9816 132.989 51.6993 132.456 52.3145C131.931 52.9214 131.295 53.3971 130.549 53.7416C129.811 54.0779 128.974 54.2461 128.039 54.2461C127.104 54.2461 126.263 54.0779 125.517 53.7416C124.77 53.3971 124.131 52.9214 123.598 52.3145C123.073 51.6993 122.671 50.9816 122.392 50.1614C122.113 49.3412 121.973 48.4513 121.973 47.4916ZM124.25 47.2087V47.4916C124.25 48.156 124.328 48.7835 124.483 49.374C124.639 49.9564 124.873 50.4731 125.185 50.9242C125.505 51.3753 125.902 51.7321 126.378 51.9946C126.854 52.2489 127.407 52.376 128.039 52.376C128.662 52.376 129.208 52.2489 129.675 51.9946C130.151 51.7321 130.545 51.3753 130.856 50.9242C131.168 50.4731 131.402 49.9564 131.558 49.374C131.722 48.7835 131.804 48.156 131.804 47.4916V47.2087C131.804 46.5525 131.722 45.9332 131.558 45.3509C131.402 44.7603 131.164 44.2395 130.844 43.7884C130.532 43.3291 130.139 42.9682 129.663 42.7057C129.195 42.4432 128.646 42.312 128.014 42.312C127.391 42.312 126.841 42.4432 126.366 42.7057C125.898 42.9682 125.505 43.3291 125.185 43.7884C124.873 44.2395 124.639 44.7603 124.483 45.3509C124.328 45.9332 124.25 46.5525 124.25 47.2087Z" fill="#FAFAFA"/>
</svg>
