<svg width="40" height="40" viewBox="0 0 40 40" fill="none" xmlns="http://www.w3.org/2000/svg">
<path d="M16.625 16.2993V27H14.8599V18.394L12.2451 19.2803V17.8228L16.4126 16.2993H16.625Z" fill="black"/>
<path d="M20.6841 22.0415L19.2778 21.6973L19.8564 16.3359H25.606V17.8301H21.3213L21.0283 20.4448C21.1943 20.3472 21.4238 20.252 21.7168 20.1592C22.0098 20.0615 22.3442 20.0127 22.7202 20.0127C23.2231 20.0127 23.6724 20.0957 24.0679 20.2617C24.4683 20.4229 24.8076 20.6597 25.0859 20.9722C25.3643 21.2798 25.5767 21.6558 25.7231 22.1001C25.8696 22.5396 25.9429 23.0352 25.9429 23.5869C25.9429 24.0801 25.8696 24.5415 25.7231 24.9712C25.5815 25.4009 25.3667 25.7793 25.0786 26.1064C24.7905 26.4336 24.4268 26.6899 23.9873 26.8755C23.5527 27.0562 23.0376 27.1465 22.4419 27.1465C21.9976 27.1465 21.5703 27.083 21.1602 26.9561C20.7549 26.8242 20.3911 26.6313 20.0688 26.3774C19.7466 26.1187 19.4878 25.8013 19.2925 25.4253C19.0972 25.0444 18.9849 24.6074 18.9556 24.1143H20.6841C20.728 24.4609 20.8232 24.7563 20.9697 25.0005C21.1211 25.2397 21.3213 25.4229 21.5703 25.5498C21.8193 25.6768 22.1074 25.7402 22.4346 25.7402C22.7324 25.7402 22.9888 25.689 23.2036 25.5864C23.4185 25.479 23.5967 25.3276 23.7383 25.1323C23.8848 24.9321 23.9922 24.6978 24.0605 24.4292C24.1338 24.1606 24.1704 23.8628 24.1704 23.5356C24.1704 23.2231 24.1289 22.9375 24.0459 22.6787C23.9678 22.4199 23.8481 22.1953 23.687 22.0049C23.5308 21.8145 23.333 21.668 23.0938 21.5654C22.8545 21.458 22.5786 21.4043 22.2661 21.4043C21.8462 21.4043 21.5239 21.4653 21.2993 21.5874C21.0796 21.7095 20.8745 21.8608 20.6841 22.0415Z" fill="black"/>
<path fill-rule="evenodd" clip-rule="evenodd" d="M33.2237 21.2632C33.2237 13.8146 27.1854 7.77631 19.7368 7.77631V5.27631C28.5661 5.27631 35.7237 12.4339 35.7237 21.2632C35.7237 30.0924 28.5661 37.25 19.7368 37.25C10.9076 37.25 3.75 30.0924 3.75 21.2632C3.75 20.5728 4.30964 20.0132 5 20.0132C5.69036 20.0132 6.25 20.5728 6.25 21.2632C6.25 28.7117 12.2883 34.75 19.7368 34.75C27.1854 34.75 33.2237 28.7117 33.2237 21.2632Z" fill="black"/>
<path d="M13.0401 6.94939C12.7288 6.75327 12.7288 6.29935 13.0401 6.10323L19.2006 2.22313C19.5336 2.01342 19.9671 2.25271 19.9671 2.64621L19.9671 10.4064C19.9671 10.7999 19.5336 11.0392 19.2006 10.8295L13.0401 6.94939Z" fill="black"/>
<path d="M6.59287 6.94939C6.28149 6.75327 6.28149 6.29935 6.59287 6.10323L12.7534 2.22313C13.0863 2.01342 13.5198 2.25271 13.5198 2.64621L13.5198 10.4064C13.5198 10.7999 13.0863 11.0392 12.7534 10.8295L6.59287 6.94939Z" fill="black"/>
</svg>
