<svg width="20" height="20" viewBox="0 0 20 20" fill="none" xmlns="http://www.w3.org/2000/svg">
<path fill-rule="evenodd" clip-rule="evenodd" d="M13.75 7.6C14.7165 7.6 15.5 6.79411 15.5 5.8C15.5 4.80589 14.7165 4 13.75 4C12.7835 4 12 4.80589 12 5.8C12 5.96629 12.0219 6.12731 12.063 6.28018L7.73606 8.51273C7.45527 8.3154 7.11574 8.2 6.75 8.2C5.7835 8.2 5 9.00589 5 10C5 10.9941 5.7835 11.8 6.75 11.8C7.11573 11.8 7.45526 11.6846 7.73605 11.4873L12.063 13.7198C12.0219 13.8727 12 14.0337 12 14.2C12 15.1941 12.7835 16 13.75 16C14.7165 16 15.5 15.1941 15.5 14.2C15.5 13.2059 14.7165 12.4 13.75 12.4C13.3978 12.4 13.0699 12.507 12.7954 12.6912L8.44566 10.4468C8.48114 10.304 8.5 10.1542 8.5 10C8.5 9.84576 8.48114 9.69605 8.44566 9.55318L12.7954 7.30885C13.0699 7.49299 13.3978 7.6 13.75 7.6ZM14.25 5.8C14.25 6.13718 13.9932 6.35 13.75 6.35C13.5068 6.35 13.25 6.13718 13.25 5.8C13.25 5.46282 13.5068 5.25 13.75 5.25C13.9932 5.25 14.25 5.46282 14.25 5.8ZM14.25 14.2C14.25 14.5372 13.9932 14.75 13.75 14.75C13.5068 14.75 13.25 14.5372 13.25 14.2C13.25 13.8628 13.5068 13.65 13.75 13.65C13.9932 13.65 14.25 13.8628 14.25 14.2ZM7.25 10C7.25 10.3372 6.99318 10.55 6.75 10.55C6.50682 10.55 6.25 10.3372 6.25 10C6.25 9.66282 6.50682 9.45 6.75 9.45C6.99318 9.45 7.25 9.66282 7.25 10Z" fill="#FAFAFA"/>
</svg>
