<svg width="40" height="40" viewBox="0 0 40 40" fill="none" xmlns="http://www.w3.org/2000/svg">
<path d="M20.3077 35C22 35 23.3846 33.6154 23.3846 31.9231H17.2308C17.2308 33.6154 18.6154 35 20.3077 35ZM29.5385 25.7692V18.0769C29.5385 13.3538 27.0308 9.4 22.6154 8.35385V7.30769C22.6154 6.03077 21.5846 5 20.3077 5C19.0308 5 18 6.03077 18 7.30769V8.35385C13.6 9.4 11.0769 13.3385 11.0769 18.0769V25.7692L8 28.8462V30.3846H32.6154V28.8462L29.5385 25.7692ZM26.4615 27.3077H14.1538V18.0769C14.1538 14.2615 16.4769 11.1538 20.3077 11.1538C24.1385 11.1538 26.4615 14.2615 26.4615 18.0769V27.3077Z" fill="#FAFAFA"/>
</svg>
