<svg width="30" height="30" viewBox="0 0 30 30" fill="none" xmlns="http://www.w3.org/2000/svg">
<mask id="path-1-inside-1_19683_22550" fill="white">
<path d="M14.25 3C17.5637 3 20.25 5.68629 20.25 9C20.25 11.4659 18.7615 13.5823 16.6348 14.5049C21.7023 15.5988 25.5 20.1052 25.5 25.5C25.5 26.1213 24.9963 26.625 24.375 26.625C23.7537 26.625 23.25 26.1213 23.25 25.5C23.25 20.5294 19.2206 16.5 14.25 16.5C9.27944 16.5 5.25 20.5294 5.25 25.5C5.25 26.1213 4.74632 26.625 4.125 26.625C3.50368 26.625 3 26.1213 3 25.5C3 20.1055 6.79714 15.5992 11.8643 14.5049C9.73796 13.5821 8.25 11.4656 8.25 9C8.25 5.68629 10.9363 3 14.25 3ZM14.25 5.25C12.1789 5.25 10.5 6.92893 10.5 9C10.5 11.0711 12.1789 12.75 14.25 12.75C16.3211 12.75 18 11.0711 18 9C18 6.92893 16.3211 5.25 14.25 5.25Z"/>
</mask>
<path d="M14.25 3C17.5637 3 20.25 5.68629 20.25 9C20.25 11.4659 18.7615 13.5823 16.6348 14.5049C21.7023 15.5988 25.5 20.1052 25.5 25.5C25.5 26.1213 24.9963 26.625 24.375 26.625C23.7537 26.625 23.25 26.1213 23.25 25.5C23.25 20.5294 19.2206 16.5 14.25 16.5C9.27944 16.5 5.25 20.5294 5.25 25.5C5.25 26.1213 4.74632 26.625 4.125 26.625C3.50368 26.625 3 26.1213 3 25.5C3 20.1055 6.79714 15.5992 11.8643 14.5049C9.73796 13.5821 8.25 11.4656 8.25 9C8.25 5.68629 10.9363 3 14.25 3ZM14.25 5.25C12.1789 5.25 10.5 6.92893 10.5 9C10.5 11.0711 12.1789 12.75 14.25 12.75C16.3211 12.75 18 11.0711 18 9C18 6.92893 16.3211 5.25 14.25 5.25Z" fill="white"/>
<path d="M16.6348 14.5049L15.4409 11.7527L6.87721 15.4676L16.0017 17.4373L16.6348 14.5049ZM11.8643 14.5049L12.4975 17.4373L21.6182 15.4676L13.0586 11.7529L11.8643 14.5049ZM14.25 3V6C15.9069 6 17.25 7.34315 17.25 9H20.25H23.25C23.25 4.02944 19.2206 0 14.25 0V3ZM20.25 9H17.25C17.25 10.2263 16.5123 11.2879 15.4409 11.7527L16.6348 14.5049L17.8287 17.2571C21.0107 15.8767 23.25 12.7055 23.25 9H20.25ZM16.6348 14.5049L16.0017 17.4373C19.7178 18.2395 22.5 21.5481 22.5 25.5H25.5H28.5C28.5 18.6623 23.6869 12.9581 17.2678 11.5724L16.6348 14.5049ZM25.5 25.5H22.5C22.5 24.4645 23.3395 23.625 24.375 23.625V26.625V29.625C26.6532 29.625 28.5 27.7782 28.5 25.5H25.5ZM24.375 26.625V23.625C25.4105 23.625 26.25 24.4645 26.25 25.5H23.25H20.25C20.25 27.7782 22.0968 29.625 24.375 29.625V26.625ZM23.25 25.5H26.25C26.25 18.8726 20.8774 13.5 14.25 13.5V16.5V19.5C17.5637 19.5 20.25 22.1863 20.25 25.5H23.25ZM14.25 16.5V13.5C7.62258 13.5 2.25 18.8726 2.25 25.5H5.25H8.25C8.25 22.1863 10.9363 19.5 14.25 19.5V16.5ZM5.25 25.5H2.25C2.25 24.4645 3.08947 23.625 4.125 23.625V26.625V29.625C6.40317 29.625 8.25 27.7782 8.25 25.5H5.25ZM4.125 26.625V23.625C5.16053 23.625 6 24.4645 6 25.5H3H0C0 27.7782 1.84683 29.625 4.125 29.625V26.625ZM3 25.5H6C6 21.5482 8.78194 18.2397 12.4975 17.4373L11.8643 14.5049L11.231 11.5725C4.81235 12.9586 0 18.6628 0 25.5H3ZM11.8643 14.5049L13.0586 11.7529C11.9877 11.2881 11.25 10.2265 11.25 9H8.25H5.25C5.25 12.7047 7.48826 15.8761 10.6699 17.2569L11.8643 14.5049ZM8.25 9H11.25C11.25 7.34315 12.5931 6 14.25 6V3V0C9.27944 0 5.25 4.02944 5.25 9H8.25ZM14.25 5.25V2.25C10.5221 2.25 7.5 5.27208 7.5 9H10.5H13.5C13.5 8.58579 13.8358 8.25 14.25 8.25V5.25ZM10.5 9H7.5C7.5 12.7279 10.5221 15.75 14.25 15.75V12.75V9.75C13.8358 9.75 13.5 9.41421 13.5 9H10.5ZM14.25 12.75V15.75C17.9779 15.75 21 12.7279 21 9H18H15C15 9.41421 14.6642 9.75 14.25 9.75V12.75ZM18 9H21C21 5.27208 17.9779 2.25 14.25 2.25V5.25V8.25C14.6642 8.25 15 8.58579 15 9H18Z" fill="white" mask="url(#path-1-inside-1_19683_22550)"/>
<rect x="22.125" y="7.875" width="7.5" height="2.25" rx="1.125" fill="white"/>
<rect x="27" y="5.25" width="7.5" height="2.25" rx="1.125" transform="rotate(90 27 5.25)" fill="white"/>
</svg>
