<svg width="40" height="40" viewBox="0 0 40 40" fill="none" xmlns="http://www.w3.org/2000/svg">
<path d="M29.4396 8.43946C30.0254 7.85368 30.9749 7.85368 31.5607 8.43946C32.1465 9.02525 32.1465 9.97477 31.5607 10.5606L22.1212 20L31.5607 29.4395C32.1465 30.0252 32.1465 30.9748 31.5607 31.5606C30.9749 32.1463 30.0254 32.1463 29.4396 31.5606L20.0001 22.1211L10.5607 31.5606C9.97489 32.1463 9.02537 32.1463 8.43958 31.5606C7.8538 30.9748 7.8538 30.0252 8.43958 29.4395L17.879 20L8.43958 10.5606C7.8538 9.97477 7.8538 9.02525 8.43958 8.43946C9.02537 7.85368 9.97489 7.85368 10.5607 8.43946L20.0001 17.8789L29.4396 8.43946Z" fill="black"/>
</svg>
