<svg width="40" height="40" viewBox="0 0 40 40" fill="none" xmlns="http://www.w3.org/2000/svg">
<path fill-rule="evenodd" clip-rule="evenodd" d="M6.24995 21.2632C6.24995 13.8146 12.2882 7.77631 19.7368 7.77631V5.27631C10.9075 5.27631 3.74995 12.4339 3.74995 21.2632C3.74995 30.0924 10.9075 37.25 19.7368 37.25C28.5661 37.25 35.7236 30.0924 35.7236 21.2632C35.7236 20.5728 35.164 20.0132 34.4736 20.0132C33.7833 20.0132 33.2236 20.5728 33.2236 21.2632C33.2236 28.7117 27.1854 34.75 19.7368 34.75C12.2882 34.75 6.24995 28.7117 6.24995 21.2632Z" fill="black"/>
<path d="M26.4335 6.94939C26.7449 6.75327 26.7449 6.29935 26.4335 6.10324L20.273 2.22313C19.9401 2.01342 19.5065 2.25271 19.5065 2.64621L19.5065 10.4064C19.5065 10.7999 19.9401 11.0392 20.273 10.8295L26.4335 6.94939Z" fill="black"/>
<path d="M32.881 6.94939C33.1924 6.75327 33.1924 6.29935 32.881 6.10324L26.7205 2.22313C26.3876 2.01342 25.9541 2.25271 25.9541 2.64621L25.9541 10.4064C25.9541 10.7999 26.3876 11.0392 26.7205 10.8295L32.881 6.94939Z" fill="black"/>
<path d="M13.8784 20.8696H14.9331C15.3433 20.8696 15.6826 20.7988 15.9512 20.6572C16.2246 20.5156 16.4272 20.3203 16.5591 20.0713C16.6909 19.8223 16.7568 19.5366 16.7568 19.2144C16.7568 18.8774 16.6958 18.5894 16.5737 18.3501C16.4565 18.106 16.2759 17.918 16.0317 17.7861C15.7925 17.6543 15.4873 17.5884 15.1162 17.5884C14.8037 17.5884 14.5205 17.6519 14.2666 17.7788C14.0176 17.9009 13.8198 18.0767 13.6733 18.3062C13.5269 18.5308 13.4536 18.7993 13.4536 19.1118H11.6812C11.6812 18.5454 11.8301 18.0425 12.1279 17.603C12.4258 17.1636 12.8311 16.8193 13.3438 16.5703C13.8613 16.3164 14.4424 16.1895 15.0869 16.1895C15.7754 16.1895 16.376 16.3042 16.8887 16.5337C17.4062 16.7583 17.8091 17.0952 18.0972 17.5444C18.3853 17.9937 18.5293 18.5503 18.5293 19.2144C18.5293 19.5171 18.4585 19.8247 18.3169 20.1372C18.1753 20.4497 17.9653 20.7354 17.687 20.9941C17.4087 21.248 17.062 21.4556 16.647 21.6167C16.2319 21.7729 15.751 21.8511 15.2041 21.8511H13.8784V20.8696ZM13.8784 22.2466V21.2798H15.2041C15.8291 21.2798 16.3613 21.353 16.8008 21.4995C17.2451 21.646 17.6064 21.8486 17.8848 22.1074C18.1631 22.3613 18.3657 22.6519 18.4927 22.979C18.6245 23.3062 18.6904 23.6528 18.6904 24.019C18.6904 24.5171 18.6001 24.9614 18.4194 25.3521C18.2437 25.7378 17.9922 26.0649 17.665 26.3335C17.3379 26.6021 16.9546 26.8047 16.5151 26.9414C16.0806 27.0781 15.6069 27.1465 15.0942 27.1465C14.6353 27.1465 14.1958 27.083 13.7759 26.9561C13.356 26.8291 12.98 26.6411 12.6479 26.3921C12.3159 26.1382 12.0522 25.8232 11.8569 25.4473C11.6665 25.0664 11.5713 24.627 11.5713 24.1289H13.3364C13.3364 24.4463 13.4097 24.7271 13.5562 24.9712C13.7075 25.2104 13.9175 25.3984 14.186 25.5352C14.4595 25.6719 14.772 25.7402 15.1235 25.7402C15.4946 25.7402 15.8145 25.6743 16.083 25.5425C16.3516 25.4106 16.5566 25.2153 16.6982 24.9565C16.8447 24.6978 16.918 24.3853 16.918 24.019C16.918 23.604 16.8374 23.2671 16.6763 23.0083C16.5151 22.7495 16.2856 22.5591 15.9878 22.437C15.6899 22.3101 15.3384 22.2466 14.9331 22.2466H13.8784Z" fill="black"/>
<path d="M27.2817 20.7744V22.5176C27.2817 23.3525 27.1987 24.0654 27.0327 24.6562C26.8716 25.2422 26.6372 25.7183 26.3296 26.0845C26.022 26.4507 25.6533 26.7192 25.2236 26.8901C24.7988 27.061 24.3228 27.1465 23.7954 27.1465C23.3755 27.1465 22.9849 27.0928 22.6235 26.9854C22.2671 26.8779 21.9448 26.7095 21.6567 26.48C21.3687 26.2505 21.1221 25.9551 20.917 25.5938C20.7168 25.2275 20.5605 24.7905 20.4482 24.2827C20.3408 23.7749 20.2871 23.1865 20.2871 22.5176V20.7744C20.2871 19.9346 20.3701 19.2266 20.5361 18.6504C20.7021 18.0693 20.939 17.5981 21.2466 17.2368C21.5542 16.8706 21.9204 16.6045 22.3452 16.4385C22.7749 16.2725 23.2534 16.1895 23.7808 16.1895C24.2056 16.1895 24.5962 16.2432 24.9526 16.3506C25.314 16.4531 25.6362 16.6167 25.9194 16.8413C26.2075 17.0659 26.4517 17.3589 26.6519 17.7202C26.8569 18.0767 27.0132 18.5088 27.1206 19.0166C27.228 19.5195 27.2817 20.1055 27.2817 20.7744ZM25.5166 22.7666V20.5107C25.5166 20.0859 25.4922 19.7124 25.4434 19.3901C25.3945 19.063 25.3213 18.7871 25.2236 18.5625C25.1309 18.333 25.0137 18.1475 24.8721 18.0059C24.7305 17.8594 24.5693 17.7544 24.3887 17.6909C24.208 17.6226 24.0054 17.5884 23.7808 17.5884C23.5073 17.5884 23.2632 17.6421 23.0483 17.7495C22.8335 17.8521 22.6528 18.0181 22.5063 18.2476C22.3599 18.4771 22.2476 18.7798 22.1694 19.1558C22.0962 19.5269 22.0596 19.9785 22.0596 20.5107V22.7666C22.0596 23.1963 22.084 23.5747 22.1328 23.9019C22.1816 24.229 22.2549 24.5098 22.3525 24.7441C22.4502 24.9736 22.5674 25.1641 22.7041 25.3154C22.8457 25.4619 23.0068 25.5693 23.1875 25.6377C23.373 25.7061 23.5757 25.7402 23.7954 25.7402C24.0737 25.7402 24.3203 25.6865 24.5352 25.5791C24.75 25.4717 24.9307 25.3008 25.0771 25.0664C25.2236 24.8271 25.3335 24.5171 25.4067 24.1362C25.48 23.7554 25.5166 23.2988 25.5166 22.7666Z" fill="black"/>
</svg>
