<svg width="40" height="40" viewBox="0 0 40 40" fill="none" xmlns="http://www.w3.org/2000/svg">
<path fill-rule="evenodd" clip-rule="evenodd" d="M24.976 8.67785C22.5546 7.82752 19.9244 7.77587 17.4715 8.53048C15.0186 9.2851 12.8722 10.8062 11.3475 12.8705C9.82274 14.9349 8.99997 17.4336 8.99997 20L11.0568 20C11.8701 20 12.3433 20.9194 11.8705 21.5812L8.81369 25.8608C8.41487 26.4191 7.58504 26.4191 7.18622 25.8608L4.12941 21.5812C3.65665 20.9194 4.12977 20 4.94314 20L6.99997 20C6.99997 17.0059 7.95986 14.0907 9.73872 11.6823C11.5176 9.27393 14.0217 7.49928 16.8834 6.6189C19.7451 5.73851 22.8137 5.79877 25.6387 6.79083C28.4637 7.78289 30.8962 9.65448 32.5791 12.1308C34.262 14.6072 35.1067 17.5579 34.9892 20.5496C34.8716 23.5414 33.798 26.4167 31.926 28.7534C30.054 31.0901 27.4821 32.765 24.588 33.5324C21.6939 34.2998 18.6301 34.1191 15.8462 33.0169C15.3327 32.8136 15.0813 32.2325 15.2846 31.719C15.4879 31.2055 16.069 30.954 16.5825 31.1573C18.9686 32.1021 21.5948 32.2569 24.0754 31.5992C26.5561 30.9415 28.7605 29.5058 30.3651 27.5029C31.9697 25.5 32.89 23.0355 32.9907 20.4711C33.0915 17.9067 32.3675 15.3776 30.9249 13.255C29.4824 11.1324 27.3974 9.52819 24.976 8.67785ZM20.1086 14C19.5026 14 19 14.5026 19 15.1086V20.5484C19 21.0658 19.2809 21.5536 19.7243 21.8197L24.3363 24.5543C24.8684 24.8647 25.5484 24.6873 25.8588 24.17C26.1692 23.6378 25.9919 22.9579 25.4745 22.6474L21.2173 20.1197V15.0939C21.2173 14.5026 20.7147 14 20.1086 14Z" fill="black"/>
</svg>
