<svg width="40" height="40" viewBox="0 0 40 40" fill="none" xmlns="http://www.w3.org/2000/svg">
<path fill-rule="evenodd" clip-rule="evenodd" d="M18.1868 7C12.5584 7 8 11.5542 8 17.1667C8 22.7791 12.5584 27.3333 18.1868 27.3333C23.8153 27.3333 28.3736 22.7791 28.3736 17.1667C28.3736 11.5542 23.8153 7 18.1868 7ZM5 17.1667C5 9.89248 10.9064 4 18.1868 4C25.4673 4 31.3736 9.89248 31.3736 17.1667C31.3736 20.5297 30.1112 23.5974 28.0341 25.9241L34.5597 32.4384C35.146 33.0237 35.1469 33.9735 34.5616 34.5597C33.9763 35.146 33.0265 35.1469 32.4403 34.5616L25.8292 27.9619C25.8167 27.9494 25.8044 27.9368 25.7925 27.9239C23.643 29.4417 21.0189 30.3333 18.1868 30.3333C10.9064 30.3333 5 24.4409 5 17.1667Z" fill="#FAFAFA"/>
</svg>
