<svg width="141" height="41" viewBox="0 0 141 41" fill="none" xmlns="http://www.w3.org/2000/svg">
<path d="M52.9888 8.31459H56.9438V19.4286H59.5955V8.31459H63.5217V5.82663H52.9888V8.31459Z" fill="white"/>
<path d="M68.9759 5.82663H66.2729V19.4286H68.9759V5.82663Z" fill="white"/>
<path d="M81.923 14.7095L75.2713 5.82663H72.6934V19.4286H75.3451V10.565L81.9968 19.4286H84.5714V5.82663H81.923V14.7095Z" fill="white"/>
<path d="M95.4157 14.8411H97.9519C97.512 16.3596 96.244 17.2263 94.4398 17.2263C91.4029 17.2263 90.0161 14.8604 90.0161 12.6645C90.0161 10.4141 91.5088 8.02568 94.2761 8.02568C95.8363 8.02568 97.13 8.82183 97.4157 9.96469L97.5153 10.3499H100.151L100.064 9.76565C99.6918 7.31621 97.2424 5.53772 94.2408 5.53772C89.7528 5.53772 87.3323 9.2199 87.3323 12.6838C87.3323 16.1798 89.7528 19.7175 94.382 19.7175C97.6469 19.7175 100.067 17.8555 100.735 14.8443H102.173V12.3563H95.4157V14.8411Z" fill="white"/>
<path d="M137.114 5.82663L134.411 11.1814L131.053 5.82663H127.952L133.031 13.9486L130.27 19.4286H133.207L140.048 5.82663H137.114Z" fill="white"/>
<path d="M111.952 14.2664C113.323 13.4478 114.167 11.9711 114.167 10.366C114.167 7.8812 112.148 5.84268 109.666 5.82663H104.414V19.4093H107.059V14.9117H109.262L111.326 19.4286H114.308L111.952 14.2664ZM109.666 12.4173H107.059V8.31459H109.64C110.761 8.31459 111.679 9.23594 111.679 10.366C111.679 11.4896 110.774 12.4077 109.666 12.4173Z" fill="white"/>
<path d="M123.336 5.939L123.297 5.82343H120.95L116.247 19.4254H119.13L120.135 16.3916H124.112L125.117 19.4254H127.997L123.336 5.939ZM120.69 14.1669L122.122 9.84269L123.554 14.1669H120.69Z" fill="white"/>
<path d="M47.9743 11.6083L45.5217 11.0401C44.5104 10.7993 44.0096 10.3403 44.0096 9.56981C44.0096 8.60673 44.8636 7.99357 46.1316 7.99357C47.5313 7.99357 48.2986 8.69341 48.6067 9.59229H51.3901C50.9502 7.31299 49.1782 5.6918 46.1091 5.6918C43.2841 5.6918 41.2713 7.40288 41.2713 9.83306C41.2713 12.0449 42.7608 13.0722 44.687 13.512L47.0979 14.0578C48.26 14.321 48.7384 14.7576 48.7384 15.5698C48.7384 16.6453 47.8395 17.2552 46.4847 17.2552C45.1685 17.2552 44.183 16.7063 43.8138 15.5249H40.9181C41.3772 18.0867 43.5024 19.5762 46.5008 19.5762C49.3515 19.5762 51.496 18 51.496 15.3933C51.4992 13.3611 50.1637 12.1124 47.9743 11.6083Z" fill="white"/>
<path d="M52.5496 24.9734V34.861H50.3178V28.7307L48.1849 34.861H46.4899L44.2864 28.7307V34.861H42.0546V24.9734H44.696L47.3374 31.8523L49.9506 24.9734H52.5496Z" fill="white"/>
<path d="M54.9284 31.4851V24.9734H57.2167V31.471C57.2167 32.375 57.8382 33.1377 58.7705 33.1377C59.7027 33.1377 60.3384 32.375 60.3384 31.471V24.9734H62.6266V31.4851C62.6266 33.5191 61.1435 35.1153 58.7705 35.1153C56.4115 35.1153 54.9284 33.5191 54.9284 31.4851Z" fill="white"/>
<path d="M64.5997 31.584H66.8879C66.8879 32.6575 67.5518 33.2931 68.4558 33.2931C69.2186 33.2931 69.7695 32.827 69.7695 32.1348C69.7695 31.358 69.1056 31.0755 68.2298 30.7506C66.4783 30.1008 64.8822 29.5076 64.8822 27.5865C64.8822 25.6231 66.5489 24.7191 68.3711 24.7191C70.6876 24.7191 71.8741 26.1881 71.8741 27.869H69.5859C69.5859 26.9933 69.148 26.4424 68.3428 26.4424C67.7072 26.4424 67.1563 26.7955 67.1563 27.4453C67.1563 28.0809 67.679 28.4482 68.5688 28.7589C70.3204 29.3663 72.0436 29.9878 72.0436 32.0077C72.0436 33.9288 70.504 35.1153 68.3852 35.1153C66.1817 35.1153 64.5997 33.844 64.5997 31.584Z" fill="white"/>
<path d="M74.2175 34.861V24.9734H76.534V34.861H74.2175Z" fill="white"/>
<path d="M86.0626 31.3156H88.4921C88.1108 33.4061 86.3169 35.1153 83.5483 35.1153C80.243 35.1153 78.2514 32.6857 78.2514 29.9172C78.2514 27.2052 80.1441 24.7191 83.5201 24.7191C86.4157 24.7191 88.2096 26.5413 88.478 28.8154H86.0909C85.879 27.6572 85.0032 26.7814 83.5483 26.7814C81.6555 26.7814 80.582 28.2787 80.582 29.9172C80.582 31.6546 81.7827 33.053 83.5766 33.053C84.9043 33.053 85.7801 32.2902 86.0626 31.3156Z" fill="white"/>
<path d="M2.14767 27.069C4.19583 25.4125 5.95827 23.6372 7.47673 21.8138C13.7464 30.2151 15.9872 36.9503 16.3949 40.0161L2.14767 27.069Z" fill="white"/>
<path d="M17.175 37.5891C16.4141 34.6774 14.2729 28.7063 8.43018 20.9053C6 17.6629 3.16533 14.9663 0 12.2986L16.7127 0.00320435C16.9117 1.82343 18.321 11.8266 25.6982 21.2071C20.1156 28.7319 17.984 34.4462 17.175 37.5891Z" fill="white"/>
<path d="M17.9486 40.0161C18.3531 36.9503 20.5939 30.2151 26.8668 21.8138C28.3885 23.634 30.1509 25.4093 32.1958 27.069L17.9486 40.0161Z" fill="white"/>
<path d="M26.8764 20.7416C19.6918 11.7175 18.2055 2.08668 17.9615 0L35.0113 12.2408C31.74 14.9888 29.0658 17.878 26.8764 20.7416Z" fill="white"/>
</svg>
